<?xml version="1.0" encoding="utf-8"?>
<!-- Generator: Adobe Illustrator 27.0.0, SVG Export Plug-In . SVG Version: 6.00 Build 0)  -->
<svg version="1.1" xmlns="http://www.w3.org/2000/svg" xmlns:xlink="http://www.w3.org/1999/xlink" x="0px" y="0px"
	 viewBox="0 0 1200 900" style="enable-background:new 0 0 1200 900;" xml:space="preserve">
<style type="text/css">
	.st0{fill:#FFFFFF;}
	.st1{fill:#EFF1F7;}
	.st2{fill:#87A0F9;}
	.st3{fill:#C2CEF9;}
	.st4{fill:#CFD1D6;}
	.st5{fill:#CCD6F9;}
	.st6{fill:#FAE1E7;}
	.st7{fill:#FAEDF1;}
	.st8{fill:#FA3E6A;}
	.st9{fill:#FA8AA4;}
	.st10{fill:#3D3D3D;}
	.st11{fill:#E3E5EB;}
	.st12{fill:#0055FE;}
	.st13{fill:#FA5A7F;}
	.st14{fill:#B4B6BA;}
	.st15{fill:#607CE3;}
	.st16{fill:#666666;}
	.st17{fill:#FAAEB1;}
	.st18{fill:#BDBDBD;}
	.st19{opacity:0.5;}
	.st20{fill:#626262;}
	.st21{fill:#E9ECF5;}
	.st22{fill:#B7C8F4;}
	.st23{fill:#656E87;}
	.st24{fill:#F3F6FF;}
	.st25{fill:#9CB0E6;}
	.st26{fill:#FA3765;}
</style>
<g id="white_background">
</g>
<g id="object">
	<rect class="st0" width="1200" height="900"/>
	<rect x="33" y="31" class="st1" width="71" height="71"/>
	<g>
		<path class="st2" d="M63.34,75.93c-1.38-0.71-2.44-1.71-3.19-3c-0.75-1.28-1.13-2.77-1.13-4.47v-8.97c0-1.69,0.38-3.18,1.13-4.47
			c0.75-1.28,1.82-2.28,3.19-2.98c1.38-0.7,2.98-1.05,4.79-1.05c1.79,0,3.38,0.34,4.76,1.02c1.38,0.68,2.44,1.63,3.2,2.87
			c0.75,1.23,1.13,2.66,1.13,4.28c0,0.24-0.18,0.39-0.54,0.44l-3.09,0.18h-0.14c-0.29,0-0.44-0.06-0.44-0.18V59.4
			c0-1.43-0.44-2.58-1.33-3.45c-0.88-0.87-2.06-1.31-3.54-1.31c-1.48,0-2.66,0.44-3.56,1.31c-0.9,0.87-1.34,2.02-1.34,3.45v9.26
			c0,1.4,0.45,2.54,1.34,3.41c0.89,0.87,2.08,1.31,3.56,1.31c1.48,0,2.66-0.43,3.54-1.29c0.88-0.86,1.33-2,1.33-3.43
			c0-0.12,0.05-0.22,0.16-0.31c0.11-0.08,0.25-0.11,0.42-0.09l3.05,0.14c0.39,0.05,0.58,0.11,0.58,0.18v0.18
			c0,1.65-0.38,3.09-1.13,4.34c-0.75,1.25-1.82,2.21-3.2,2.89c-1.38,0.68-2.97,1.02-4.76,1.02C66.31,77.01,64.72,76.65,63.34,75.93z
			"/>
		<path class="st2" d="M84.25,75.55c-1.38-0.97-2.34-2.31-2.87-4.03c-0.41-1.19-0.62-2.57-0.62-4.14c0-1.55,0.19-2.93,0.58-4.14
			c0.56-1.69,1.52-3.01,2.9-3.96c1.38-0.94,3.04-1.42,4.97-1.42c1.84,0,3.43,0.47,4.77,1.42c1.34,0.94,2.29,2.25,2.85,3.92
			c0.44,1.16,0.65,2.54,0.65,4.14c0,1.52-0.21,2.9-0.62,4.14c-0.56,1.72-1.51,3.07-2.87,4.05c-1.36,0.98-2.97,1.47-4.83,1.47
			C87.27,77.01,85.63,76.52,84.25,75.55z M91.49,72.61c0.64-0.51,1.1-1.22,1.36-2.14c0.27-0.77,0.4-1.79,0.4-3.05
			c0-1.19-0.12-2.2-0.36-3.05c-0.27-0.92-0.73-1.63-1.4-2.12c-0.67-0.5-1.46-0.74-2.38-0.74c-0.92,0-1.71,0.25-2.36,0.74
			c-0.65,0.5-1.11,1.2-1.38,2.12c-0.24,0.85-0.36,1.86-0.36,3.05c0,1.19,0.12,2.2,0.36,3.05c0.27,0.92,0.73,1.63,1.4,2.14
			c0.67,0.51,1.47,0.76,2.41,0.76C90.08,73.37,90.85,73.12,91.49,72.61z"/>
		<path class="st2" d="M125.73,59.56c1.05,1.13,1.58,2.69,1.58,4.7v11.87c0,0.39-0.19,0.58-0.58,0.58h-3.01
			c-0.39,0-0.58-0.19-0.58-0.58v-11c0-1.11-0.3-2-0.89-2.65c-0.59-0.65-1.39-0.98-2.38-0.98c-0.99,0-1.8,0.33-2.43,0.98
			c-0.63,0.65-0.94,1.52-0.94,2.61v11.04c0,0.39-0.19,0.58-0.58,0.58h-3.01c-0.39,0-0.58-0.19-0.58-0.58v-11c0-1.11-0.3-2-0.91-2.65
			c-0.61-0.65-1.4-0.98-2.4-0.98c-0.92,0-1.68,0.27-2.27,0.8c-0.59,0.53-0.94,1.26-1.04,2.18v11.65c0,0.39-0.19,0.58-0.58,0.58
			h-3.05c-0.39,0-0.58-0.19-0.58-0.58V58.74c0-0.39,0.19-0.58,0.58-0.58h3.05c0.39,0,0.58,0.19,0.58,0.58v0.98
			c0,0.1,0.03,0.16,0.09,0.18c0.06,0.02,0.11-0.01,0.16-0.11c1.04-1.28,2.57-1.92,4.57-1.92c1.19,0,2.22,0.24,3.1,0.71
			c0.88,0.47,1.57,1.17,2.05,2.09c0.05,0.07,0.1,0.11,0.16,0.11c0.06,0,0.1-0.05,0.13-0.15c0.56-0.92,1.31-1.61,2.25-2.07
			c0.94-0.46,1.98-0.69,3.12-0.69C123.22,57.87,124.68,58.43,125.73,59.56z"/>
		<path class="st2" d="M148,67.49c0,1.72-0.21,3.2-0.62,4.43c-0.53,1.6-1.39,2.84-2.58,3.74c-1.19,0.9-2.66,1.34-4.43,1.34
			c-1.69,0-3.07-0.59-4.14-1.78c-0.05-0.07-0.1-0.1-0.16-0.09c-0.06,0.01-0.09,0.07-0.09,0.16V83c0,0.39-0.19,0.58-0.58,0.58h-3.05
			c-0.39,0-0.58-0.19-0.58-0.58V58.74c0-0.39,0.19-0.58,0.58-0.58h3.05c0.39,0,0.58,0.19,0.58,0.58v0.94c0,0.1,0.03,0.16,0.09,0.18
			c0.06,0.02,0.11-0.01,0.16-0.11c1.04-1.26,2.42-1.89,4.14-1.89c1.69,0,3.15,0.45,4.36,1.36c1.21,0.91,2.08,2.15,2.61,3.72
			C147.79,64.29,148,65.8,148,67.49z M143.65,67.42c0-1.74-0.29-3.12-0.87-4.14c-0.63-1.16-1.65-1.74-3.05-1.74
			c-1.21,0-2.15,0.57-2.83,1.71c-0.56,0.94-0.84,2.35-0.84,4.21c0,1.89,0.3,3.33,0.91,4.32c0.65,1.07,1.56,1.6,2.72,1.6
			c1.26,0,2.23-0.51,2.9-1.52C143.29,70.78,143.65,69.31,143.65,67.42z"/>
		<path class="st2" d="M163.29,58.16h3.01c0.39,0,0.58,0.19,0.58,0.58v17.39c0,0.39-0.19,0.58-0.58,0.58h-3.01
			c-0.39,0-0.58-0.19-0.58-0.58v-0.94c0-0.1-0.03-0.16-0.09-0.18c-0.06-0.02-0.12,0.01-0.16,0.11c-0.97,1.23-2.44,1.85-4.43,1.85
			c-1.84,0-3.38-0.53-4.63-1.6c-1.25-1.06-1.87-2.58-1.87-4.54V58.74c0-0.39,0.19-0.58,0.58-0.58h3.05c0.39,0,0.58,0.19,0.58,0.58
			v10.89c0,1.14,0.3,2.05,0.89,2.72c0.59,0.68,1.42,1.02,2.49,1.02c1.09,0,1.96-0.34,2.61-1.02c0.65-0.68,0.98-1.58,0.98-2.72V58.74
			C162.71,58.36,162.9,58.16,163.29,58.16z"/>
		<path class="st2" d="M180.64,61.57h-3.52c-0.15,0-0.22,0.07-0.22,0.22v8.57c0,0.94,0.2,1.62,0.6,2.03
			c0.4,0.41,1.03,0.62,1.91,0.62h0.94c0.39,0,0.58,0.19,0.58,0.58v2.43c0,0.39-0.19,0.59-0.58,0.62l-1.74,0.04
			c-1.91,0-3.34-0.33-4.28-1c-0.94-0.67-1.43-1.91-1.45-3.72V61.79c0-0.15-0.07-0.22-0.22-0.22h-1.89c-0.39,0-0.58-0.19-0.58-0.58
			v-2.25c0-0.39,0.19-0.58,0.58-0.58h1.89c0.14,0,0.22-0.07,0.22-0.22v-4.07c0-0.39,0.19-0.58,0.58-0.58h2.87
			c0.39,0,0.58,0.19,0.58,0.58v4.07c0,0.15,0.07,0.22,0.22,0.22h3.52c0.39,0,0.58,0.19,0.58,0.58v2.25
			C181.22,61.38,181.03,61.57,180.64,61.57z"/>
		<path class="st2" d="M195.26,72.88c0.67-0.35,1.2-0.83,1.62-1.43c0.12-0.19,0.28-0.29,0.47-0.29c0.12,0,0.23,0.04,0.33,0.11
			l1.74,1.38c0.17,0.17,0.25,0.33,0.25,0.47c0,0.1-0.04,0.21-0.11,0.33c-0.7,1.11-1.66,1.98-2.87,2.61
			c-1.21,0.63-2.6,0.94-4.18,0.94c-1.91,0-3.52-0.45-4.81-1.36c-1.3-0.91-2.23-2.17-2.81-3.79c-0.48-1.33-0.73-2.83-0.73-4.5
			c0-1.67,0.13-2.95,0.4-3.85c0.46-1.72,1.37-3.09,2.72-4.1c1.36-1.02,3-1.52,4.94-1.52c4.53,0,7.18,2.48,7.95,7.44
			c0.12,0.8,0.21,1.79,0.25,2.98c0,0.39-0.19,0.58-0.58,0.58h-11.26c-0.15,0-0.22,0.07-0.22,0.22c0,0.65,0.07,1.19,0.22,1.6
			c0.27,0.87,0.77,1.55,1.52,2.03c0.75,0.48,1.68,0.73,2.8,0.73C193.81,73.42,194.59,73.24,195.26,72.88z M189.92,62.17
			c-0.59,0.45-1,1.07-1.22,1.87c-0.17,0.48-0.27,0.99-0.29,1.52c-0.02,0.15,0.04,0.22,0.18,0.22h7.3c0.15,0,0.22-0.07,0.22-0.22
			c-0.1-0.73-0.17-1.16-0.22-1.31c-0.22-0.85-0.65-1.52-1.29-2.02c-0.64-0.5-1.45-0.74-2.41-0.74
			C191.27,61.5,190.51,61.73,189.92,62.17z"/>
		<path class="st2" d="M214.84,58.34c0.29,0.15,0.4,0.39,0.33,0.73l-0.58,3.01c-0.02,0.19-0.09,0.31-0.2,0.36
			c-0.11,0.05-0.27,0.05-0.49,0c-0.29-0.1-0.68-0.15-1.16-0.15c-0.29,0-0.52,0.01-0.69,0.04c-1.02,0.05-1.86,0.41-2.54,1.07
			c-0.68,0.67-1.02,1.53-1.02,2.6v10.13c0,0.39-0.19,0.58-0.58,0.58h-3.05c-0.39,0-0.58-0.19-0.58-0.58V58.74
			c0-0.39,0.19-0.58,0.58-0.58h3.05c0.39,0,0.58,0.19,0.58,0.58v1.42c0,0.1,0.02,0.16,0.07,0.18c0.05,0.02,0.1-0.01,0.15-0.11
			c1.02-1.52,2.42-2.29,4.21-2.29C213.62,57.94,214.26,58.08,214.84,58.34z"/>
		<path class="st2" d="M231.65,76.24l-7.52-24.29c-0.02-0.05-0.04-0.12-0.04-0.22c0-0.29,0.17-0.44,0.51-0.44h3.3
			c0.34,0,0.56,0.16,0.65,0.47l5.37,18.77c0.05,0.1,0.1,0.15,0.16,0.15c0.06,0,0.1-0.05,0.13-0.15l5.34-18.73
			c0.07-0.34,0.29-0.51,0.65-0.51h3.23c0.19,0,0.33,0.06,0.42,0.18c0.08,0.12,0.1,0.28,0.05,0.47l-7.62,24.29
			c-0.1,0.31-0.31,0.47-0.65,0.47h-3.34C231.97,76.71,231.75,76.56,231.65,76.24z"/>
		<path class="st2" d="M247.77,55.09c-0.51-0.5-0.76-1.13-0.76-1.91c0-0.77,0.25-1.4,0.76-1.89c0.51-0.48,1.16-0.73,1.96-0.73
			c0.8,0,1.45,0.24,1.94,0.73c0.5,0.48,0.74,1.11,0.74,1.89c0,0.77-0.25,1.41-0.74,1.91c-0.5,0.5-1.14,0.74-1.94,0.74
			C248.93,55.84,248.28,55.59,247.77,55.09z M247.63,76.13V58.74c0-0.39,0.19-0.58,0.58-0.58h3.05c0.39,0,0.58,0.19,0.58,0.58v17.39
			c0,0.39-0.19,0.58-0.58,0.58h-3.05C247.82,76.71,247.63,76.52,247.63,76.13z"/>
		<path class="st2" d="M259.52,76.26c-1.15-0.45-2.04-1.06-2.67-1.85c-0.63-0.79-0.94-1.66-0.94-2.63V71.6
			c0-0.39,0.19-0.58,0.58-0.58h2.9c0.39,0,0.58,0.08,0.58,0.25v0.25c0,0.61,0.33,1.13,1,1.58c0.67,0.45,1.51,0.67,2.52,0.67
			c0.97,0,1.75-0.2,2.36-0.6c0.61-0.4,0.91-0.9,0.91-1.51c0-0.56-0.25-0.97-0.74-1.25c-0.5-0.28-1.3-0.57-2.41-0.89l-1.38-0.44
			c-1.23-0.36-2.28-0.75-3.12-1.16c-0.85-0.41-1.56-0.97-2.14-1.69c-0.58-0.71-0.87-1.63-0.87-2.74c0-1.69,0.66-3.04,1.98-4.05
			c1.32-1,3.07-1.51,5.25-1.51c1.48,0,2.77,0.24,3.88,0.71c1.11,0.47,1.98,1.13,2.6,1.96c0.62,0.83,0.93,1.79,0.93,2.85
			c0,0.12-0.05,0.22-0.16,0.31c-0.11,0.08-0.25,0.13-0.42,0.13h-2.8c-0.39,0-0.58-0.07-0.58-0.22v-0.22c0-0.63-0.31-1.16-0.93-1.58
			c-0.62-0.42-1.46-0.64-2.52-0.64c-0.94,0-1.71,0.18-2.31,0.53c-0.59,0.35-0.89,0.84-0.89,1.47c0,0.58,0.28,1.02,0.83,1.33
			c0.56,0.3,1.49,0.64,2.8,1l0.84,0.22c1.31,0.39,2.4,0.77,3.27,1.16c0.87,0.39,1.61,0.94,2.21,1.67c0.6,0.73,0.91,1.66,0.91,2.8
			c0,1.72-0.68,3.07-2.03,4.05c-1.36,0.98-3.16,1.47-5.41,1.47C262,76.93,260.67,76.71,259.52,76.26z"/>
		<path class="st2" d="M274.97,55.09c-0.51-0.5-0.76-1.13-0.76-1.91c0-0.77,0.25-1.4,0.76-1.89c0.51-0.48,1.16-0.73,1.96-0.73
			c0.8,0,1.45,0.24,1.94,0.73c0.5,0.48,0.74,1.11,0.74,1.89c0,0.77-0.25,1.41-0.74,1.91c-0.5,0.5-1.14,0.74-1.94,0.74
			C276.13,55.84,275.47,55.59,274.97,55.09z M274.82,76.13V58.74c0-0.39,0.19-0.58,0.58-0.58h3.05c0.39,0,0.58,0.19,0.58,0.58v17.39
			c0,0.39-0.19,0.58-0.58,0.58h-3.05C275.01,76.71,274.82,76.52,274.82,76.13z"/>
		<path class="st2" d="M286.76,75.55c-1.38-0.97-2.34-2.31-2.87-4.03c-0.41-1.19-0.62-2.57-0.62-4.14c0-1.55,0.19-2.93,0.58-4.14
			c0.56-1.69,1.52-3.01,2.9-3.96c1.38-0.94,3.04-1.42,4.97-1.42c1.84,0,3.43,0.47,4.77,1.42c1.34,0.94,2.29,2.25,2.85,3.92
			c0.44,1.16,0.65,2.54,0.65,4.14c0,1.52-0.21,2.9-0.62,4.14c-0.56,1.72-1.51,3.07-2.87,4.05c-1.36,0.98-2.97,1.47-4.83,1.47
			C289.79,77.01,288.14,76.52,286.76,75.55z M294.01,72.61c0.64-0.51,1.1-1.22,1.36-2.14c0.27-0.77,0.4-1.79,0.4-3.05
			c0-1.19-0.12-2.2-0.36-3.05c-0.27-0.92-0.73-1.63-1.4-2.12c-0.67-0.5-1.46-0.74-2.38-0.74c-0.92,0-1.71,0.25-2.36,0.74
			c-0.65,0.5-1.11,1.2-1.38,2.12c-0.24,0.85-0.36,1.86-0.36,3.05c0,1.19,0.12,2.2,0.36,3.05c0.27,0.92,0.73,1.63,1.4,2.14
			c0.67,0.51,1.47,0.76,2.41,0.76C292.6,73.37,293.37,73.12,294.01,72.61z"/>
		<path class="st2" d="M317.64,59.61c1.17,1.16,1.76,2.75,1.76,4.76v11.76c0,0.39-0.19,0.58-0.58,0.58h-3.05
			c-0.39,0-0.58-0.19-0.58-0.58V65.24c0-1.11-0.32-2.01-0.96-2.7c-0.64-0.69-1.48-1.03-2.52-1.03c-1.04,0-1.88,0.34-2.52,1.02
			c-0.64,0.68-0.96,1.57-0.96,2.69v10.93c0,0.39-0.19,0.58-0.58,0.58h-3.05c-0.39,0-0.58-0.19-0.58-0.58V58.74
			c0-0.39,0.19-0.58,0.58-0.58h3.05c0.39,0,0.58,0.19,0.58,0.58v0.98c0,0.1,0.02,0.16,0.07,0.18c0.05,0.02,0.1,0,0.15-0.07
			c1.02-1.31,2.5-1.96,4.47-1.96C314.89,57.87,316.47,58.45,317.64,59.61z"/>
	</g>
	<g>
		<path class="st1" d="M226.59,783.08c120.32-6.33,241.38-26.14,361.65-19.42c78.11,4.36,156.17,11.47,234.52,10.04
			s208.24-11.99,274.65-40.31c19.1-8.14,38.67-20,38.39-35.33c-0.43-23.72-44.87-33.79-79.74-33.82
			c-106-0.08-256.62,30.1-361.2,41.84c-131.25,14.72-249.58-6.73-373.82-32.75c-39.36-8.24-77.3-13.85-118.63-9.98
			c-40.61,3.8-137.95,16.26-138.2,48.73C63.78,766.78,173.49,785.88,226.59,783.08z"/>
		<g>
			<path class="st3" d="M195.46,552.16c-20.56-23.06-3.27-41.52-0.2-76.11c3.08-34.6-21.77-53.05-50.74-53.05
				c-26.73,0-53.82,18.45-50.74,53.05c3.08,34.6,20.37,53.05-0.2,76.11c-20.56,23.06-35.94,91.61,50.94,91.61
				C231.39,643.77,216.02,575.23,195.46,552.16z"/>
			<g>
				<path class="st2" d="M144.52,718.02c-0.55,0-1-0.45-1-1V484.39c0-0.55,0.45-1,1-1c0.55,0,1,0.45,1,1v232.64
					C145.52,717.58,145.07,718.02,144.52,718.02z"/>
			</g>
			<g>
				<path class="st2" d="M142.58,522.14c-4.32,0-14.57-0.68-21-6.67c-3.61-3.36-5.44-7.86-5.44-13.39c0-0.55,0.45-1,1-1
					c0.55,0,1,0.45,1,1c0,4.95,1.61,8.96,4.79,11.92c7.51,6.99,21.37,6.09,21.51,6.09c0.57-0.04,1.03,0.38,1.07,0.93
					c0.04,0.55-0.38,1.03-0.93,1.07C144.46,522.09,143.73,522.14,142.58,522.14z"/>
			</g>
			<g>
				<path class="st2" d="M148.08,595.64c-2.11,0-3.48-0.14-3.67-0.16c-0.55-0.06-0.95-0.55-0.89-1.1c0.06-0.55,0.56-0.95,1.1-0.89
					c0.17,0.02,16.7,1.68,26.92-7.51c5.41-4.86,8.15-11.92,8.15-20.99c0-0.55,0.45-1,1-1c0.55,0,1,0.45,1,1
					c0,9.67-2.97,17.23-8.83,22.48C164.92,594.62,153.79,595.64,148.08,595.64z"/>
			</g>
		</g>
		<g>
			<path class="st3" d="M1067.54,541.48c-20.77-23.3-3.3-41.94-0.2-76.89S1045.35,411,1016.08,411c-27,0-54.37,18.64-51.26,53.59
				c3.11,34.95,20.57,53.59-0.2,76.89c-20.77,23.3-36.31,92.54,51.46,92.54S1088.31,564.78,1067.54,541.48z"/>
			<g>
				<path class="st2" d="M1016.08,709.02c-0.55,0-1-0.45-1-1V473.02c0-0.55,0.45-1,1-1s1,0.45,1,1v235.01
					C1017.08,708.58,1016.63,709.02,1016.08,709.02z"/>
			</g>
			<g>
				<path class="st2" d="M1014.12,511.14c-4.37,0-14.71-0.69-21.21-6.74c-3.64-3.39-5.49-7.94-5.49-13.52c0-0.55,0.45-1,1-1
					c0.55,0,1,0.45,1,1c0,5,1.63,9.05,4.85,12.05c7.59,7.07,21.6,6.16,21.74,6.15c0.54-0.04,1.03,0.38,1.07,0.93
					c0.04,0.55-0.38,1.03-0.93,1.07C1016.02,511.09,1015.28,511.14,1014.12,511.14z"/>
			</g>
			<g>
				<path class="st2" d="M1019.68,585.39c-2.13,0-3.52-0.14-3.71-0.16c-0.55-0.06-0.95-0.55-0.89-1.1c0.06-0.55,0.56-0.95,1.1-0.89
					c0.17,0.02,16.87,1.7,27.21-7.59c5.47-4.91,8.24-12.05,8.24-21.21c0-0.55,0.45-1,1-1s1,0.45,1,1c0,9.76-3,17.4-8.91,22.71
					C1036.68,584.36,1025.45,585.39,1019.68,585.39z"/>
			</g>
		</g>
		<rect x="306.8" y="456.44" class="st4" width="662.35" height="42.72"/>
		<g>
			<rect x="316.99" y="168" class="st5" width="618.47" height="307.46"/>
			<path class="st0" d="M758.84,314.18c-8.3-7.49-24.38-6.07-27.93,4.53c-5.3-15.53-19.09-27.85-35.12-31.37
				c-16.02-3.52-33.71,1.89-45.03,13.77c0.25-15.24-13-28.03-27.6-32.42c-14.6-4.38-30.26-2.29-45.35-0.16
				c1.14-25.29-16.21-50.28-40.29-58.06c-24.08-7.78-52.78,2.33-66.65,23.5c-10.4-33.3-44.28-57.71-79.16-57.04
				c-32.52,0.63-63.33,23.03-74.73,53.36v113.2l451.21,1.69C768.96,334.03,767.14,321.67,758.84,314.18z"/>
			<rect x="316.99" y="343.48" class="st6" width="618.47" height="131.98"/>
			<polygon class="st7" points="546.32,343.48 358.16,475.46 780.94,475.46 680.25,343.48 			"/>
			<path class="st8" d="M663.24,330.89h-74.05c-3.55,0-6.74,2.14-8.08,5.42l-5.96,14.53c-2.36,5.75,1.87,12.05,8.08,12.05h85.96
				c6.21,0,10.44-6.3,8.08-12.05l-5.96-14.53C669.98,333.04,666.79,330.89,663.24,330.89z"/>
			<path class="st8" d="M641.59,306.02h-30.73c-4.24,0-8.13,2.35-10.11,6.1l-9.91,18.78h70.78l-9.91-18.78
				C649.72,308.37,645.83,306.02,641.59,306.02z"/>
			<g>
				<path class="st2" d="M605.52,314.57c1.07-2.03,3.17-3.3,5.47-3.3h30.73c2.3,0,4.4,1.26,5.47,3.3l8.29,16.33h-58.54
					L605.52,314.57z"/>
			</g>
			<g>
				<circle class="st9" cx="592.02" cy="346.85" r="7.08"/>
				<circle class="st9" cx="660.42" cy="346.85" r="7.08"/>
			</g>
			<rect x="612.06" y="343.48" class="st0" width="28.32" height="8.52"/>
			<g>
				<path class="st10" d="M593.96,372.07h-6.18c-1.55,0-2.81-1.26-2.81-2.81v-6.36h11.79v6.36
					C596.77,370.81,595.51,372.07,593.96,372.07z"/>
				<path class="st10" d="M664.66,372.07h-6.18c-1.55,0-2.81-1.26-2.81-2.81v-6.36h11.79v6.36
					C667.46,370.81,666.21,372.07,664.66,372.07z"/>
			</g>
			<g>
				<path class="st8" d="M592.04,333.2h-12.78c-2.63,0-4.76-2.13-4.76-4.76l0,0c0-2.63,2.13-4.76,4.76-4.76h8.02
					c2.63,0,4.76,2.13,4.76,4.76V333.2z"/>
				<path class="st8" d="M660.4,333.2h12.78c2.63,0,4.76-2.13,4.76-4.76l0,0c0-2.63-2.13-4.76-4.76-4.76h-8.02
					c-2.63,0-4.76,2.13-4.76,4.76V333.2z"/>
			</g>
			<g>
				<rect x="445.07" y="296.48" class="st2" width="5" height="76.32"/>
			</g>
			<path class="st2" d="M442.19,242.03l-30.74,44.14c-3.03,4.35,0.08,10.31,5.39,10.31h61.48c5.3,0,8.42-5.96,5.39-10.31
				l-30.74-44.14C450.35,238.28,444.8,238.28,442.19,242.03z"/>
			<path class="st11" d="M419.96,285.42l25.26-36.28c1.14-1.63,3.55-1.63,4.69,0l25.27,36.28c1.32,1.9-0.04,4.49-2.35,4.49h-50.53
				C420,289.91,418.64,287.32,419.96,285.42z"/>
			<g>
				<polygon class="st12" points="585.5,419.75 562.35,419.75 562.35,417.75 584.13,417.75 608.47,355.57 610.34,356.3 				"/>
			</g>
			<rect x="387.84" y="388.12" class="st12" width="174.87" height="56.12"/>
			<g>
				<path class="st2" d="M418.11,431.74l-1.81-5.53c-0.06-0.12-0.14-0.18-0.23-0.18h-13.5c-0.09,0-0.17,0.06-0.23,0.18l-1.77,5.53
					c-0.09,0.33-0.3,0.5-0.63,0.5h-2.18c-0.21,0-0.36-0.06-0.45-0.18c-0.09-0.12-0.11-0.29-0.04-0.5l9.96-30.53
					c0.09-0.33,0.3-0.5,0.63-0.5h2.9c0.33,0,0.54,0.17,0.63,0.5l10.01,30.53c0.03,0.06,0.05,0.14,0.05,0.23
					c0,0.12-0.05,0.23-0.16,0.32c-0.11,0.09-0.23,0.14-0.38,0.14h-2.18C418.41,432.24,418.2,432.07,418.11,431.74z M403.52,423.4
					h11.64c0.18,0,0.24-0.09,0.18-0.27l-5.89-18.53c-0.03-0.12-0.08-0.18-0.14-0.18c-0.06,0-0.11,0.06-0.14,0.18l-5.84,18.53
					C403.31,423.31,403.37,423.4,403.52,423.4z"/>
				<path class="st2" d="M440.71,400.53h2.22c0.39,0,0.59,0.2,0.59,0.59v30.53c0,0.39-0.2,0.59-0.59,0.59h-2.04
					c-0.39,0-0.59-0.2-0.59-0.59v-27.59c0-0.09-0.02-0.15-0.07-0.18c-0.04-0.03-0.11-0.03-0.2,0l-4.76,1.99
					c-0.06,0.03-0.15,0.05-0.27,0.05c-0.27,0-0.41-0.17-0.41-0.5v-1.4c0-0.3,0.14-0.53,0.41-0.68l4.94-2.63
					C440.16,400.59,440.41,400.53,440.71,400.53z"/>
				<path class="st2" d="M450.41,431.65v-1.68c0-0.27,0.09-0.51,0.27-0.72c2.27-2.69,5.68-6.89,10.24-12.59
					c2.84-3.59,4.26-6.39,4.26-8.38c0-1.6-0.54-2.88-1.63-3.85c-1.09-0.97-2.51-1.45-4.26-1.45c-1.72,0-3.11,0.49-4.17,1.47
					c-1.06,0.98-1.57,2.27-1.54,3.87v1.27c0,0.39-0.2,0.59-0.59,0.59h-2.08c-0.39,0-0.59-0.2-0.59-0.59v-1.68
					c0.06-2.32,0.93-4.2,2.6-5.62c1.68-1.42,3.8-2.13,6.37-2.13c1.81,0,3.41,0.35,4.8,1.04c1.39,0.69,2.46,1.65,3.22,2.88
					c0.75,1.22,1.13,2.6,1.13,4.14c0,2.57-1.42,5.66-4.26,9.29c-1.36,1.78-3.87,4.91-7.52,9.38l-1.86,2.26
					c-0.06,0.06-0.08,0.12-0.04,0.18c0.03,0.06,0.09,0.09,0.18,0.09h13.86c0.39,0,0.59,0.2,0.59,0.59v1.63
					c0,0.39-0.2,0.59-0.59,0.59H451C450.6,432.24,450.41,432.04,450.41,431.65z"/>
				<path class="st2" d="M492.13,422.54c0,1.54-0.23,2.99-0.68,4.35c-0.61,1.84-1.62,3.25-3.06,4.24c-1.43,0.98-3.21,1.47-5.32,1.47
					c-2.14,0-3.97-0.56-5.48-1.68c-1.51-1.12-2.54-2.6-3.08-4.44c-0.27-0.94-0.44-2.04-0.5-3.31c0-0.39,0.2-0.59,0.59-0.59h2.08
					c0.39,0,0.59,0.2,0.59,0.59c0.06,1.03,0.15,1.8,0.27,2.31c0.33,1.3,0.98,2.34,1.95,3.13c0.97,0.79,2.16,1.18,3.58,1.18
					c1.3,0,2.39-0.31,3.28-0.93c0.89-0.62,1.53-1.5,1.93-2.65c0.42-1.12,0.63-2.37,0.63-3.76c0-1.78-0.27-3.26-0.82-4.44
					c-0.85-2.17-2.54-3.26-5.07-3.26c-0.48,0-0.97,0.09-1.45,0.27c-0.18,0.06-0.29,0.09-0.32,0.09c-0.18,0-0.33-0.09-0.45-0.27
					l-1-1.18c-0.12-0.18-0.18-0.32-0.18-0.41c0-0.09,0.06-0.23,0.18-0.41l7.88-9.24c0.15-0.18,0.11-0.27-0.14-0.27h-12.68
					c-0.39,0-0.59-0.2-0.59-0.59v-1.63c0-0.39,0.2-0.59,0.59-0.59h16.49c0.39,0,0.59,0.2,0.59,0.59v1.81c0,0.24-0.09,0.48-0.27,0.72
					l-7.29,8.74c-0.06,0.06-0.08,0.12-0.05,0.18c0.03,0.06,0.11,0.09,0.23,0.09c3.29,0.21,5.51,1.74,6.66,4.58
					C491.83,418.72,492.13,420.49,492.13,422.54z"/>
				<path class="st2" d="M517.36,421.18v1.72c0,0.39-0.2,0.59-0.59,0.59H515c-0.15,0-0.23,0.08-0.23,0.23v7.93
					c0,0.39-0.2,0.59-0.59,0.59h-2.04c-0.39,0-0.59-0.2-0.59-0.59v-7.93c0-0.15-0.08-0.23-0.23-0.23h-13.41
					c-0.39,0-0.59-0.19-0.59-0.59v-1.45c0-0.18,0.06-0.42,0.18-0.72l9.15-19.75c0.15-0.3,0.39-0.45,0.72-0.45h2.08
					c0.24,0,0.4,0.06,0.48,0.18c0.07,0.12,0.07,0.29-0.02,0.5l-8.88,19.12c-0.03,0.06-0.03,0.12,0,0.18
					c0.03,0.06,0.08,0.09,0.14,0.09h10.15c0.15,0,0.23-0.08,0.23-0.23v-7.11c0-0.39,0.2-0.59,0.59-0.59h2.04
					c0.39,0,0.59,0.2,0.59,0.59v7.11c0,0.15,0.08,0.23,0.23,0.23h1.77C517.16,420.6,517.36,420.79,517.36,421.18z"/>
				<path class="st2" d="M555.1,412.8h-3.26c-0.18,0-0.27,0.08-0.27,0.23l-1.09,7.11c0,0.15,0.06,0.23,0.18,0.23h2.85
					c0.39,0,0.59,0.2,0.59,0.59l-0.04,1.63c0,0.39-0.2,0.59-0.59,0.59h-3.22c-0.18,0-0.27,0.08-0.27,0.23l-1.18,7.56
					c-0.03,0.36-0.24,0.54-0.63,0.54l-2.04-0.09c-0.18,0-0.32-0.06-0.43-0.18c-0.11-0.12-0.14-0.27-0.11-0.45l1.13-7.38
					c0-0.15-0.06-0.23-0.18-0.23h-7.11c-0.18,0-0.27,0.08-0.27,0.23l-1.18,7.56c-0.03,0.36-0.24,0.54-0.63,0.54l-2.04-0.09
					c-0.18,0-0.32-0.06-0.43-0.18c-0.11-0.12-0.14-0.27-0.11-0.45l1.13-7.38c0-0.15-0.06-0.23-0.18-0.23h-2.72
					c-0.39,0-0.59-0.2-0.59-0.59l0.05-1.63c0-0.39,0.2-0.59,0.59-0.59h3.13c0.18,0,0.27-0.07,0.27-0.23l1.09-7.11
					c0-0.15-0.06-0.23-0.18-0.23h-2.67c-0.39,0-0.59-0.2-0.59-0.59v-1.68c0-0.39,0.2-0.59,0.59-0.59h3.13
					c0.18,0,0.27-0.07,0.27-0.23l1.18-7.57c0.06-0.36,0.27-0.54,0.63-0.54l2.04,0.09c0.18,0,0.32,0.06,0.43,0.18
					c0.11,0.12,0.14,0.27,0.11,0.45l-1.13,7.38c0,0.15,0.06,0.23,0.18,0.23h7.07c0.18,0,0.27-0.07,0.27-0.23l1.18-7.57
					c0.06-0.36,0.27-0.54,0.63-0.54l2.04,0.09c0.18,0,0.32,0.06,0.43,0.18c0.11,0.12,0.14,0.27,0.11,0.45l-1.13,7.38
					c0,0.15,0.06,0.23,0.18,0.23h2.85c0.39,0,0.59,0.2,0.59,0.59l-0.04,1.68C555.68,412.61,555.49,412.8,555.1,412.8z
					 M547.26,420.14l1.09-7.11c0-0.15-0.06-0.23-0.18-0.23h-7.11c-0.18,0-0.27,0.08-0.27,0.23l-1.09,7.11
					c0,0.15,0.06,0.23,0.18,0.23h7.11C547.17,420.37,547.26,420.3,547.26,420.14z"/>
			</g>
			<g>
				<path class="st8" d="M807.8,276.89c-12.12-13.6-1.93-24.48-0.12-44.87s-12.83-31.27-29.91-31.27
					c-15.76,0-31.73,10.88-29.91,31.27s12.01,31.27-0.12,44.87c-12.12,13.6-21.19,54,30.03,54S819.92,290.49,807.8,276.89z"/>
				<g>
					<path class="st9" d="M777.77,375.08c-0.55,0-1-0.45-1-1V236.93c0-0.55,0.45-1,1-1c0.55,0,1,0.45,1,1v137.14
						C778.77,374.63,778.32,375.08,777.77,375.08z"/>
				</g>
				<g>
					<path class="st9" d="M776.64,259.6c-2.6,0-8.78-0.41-12.68-4.04c-2.21-2.06-3.34-4.82-3.34-8.19c0-0.55,0.45-1,1-1
						c0.55,0,1,0.45,1,1c0,2.8,0.91,5.06,2.69,6.73c4.29,4,12.3,3.49,12.38,3.48c0.57-0.04,1.03,0.38,1.07,0.93
						c0.04,0.55-0.38,1.03-0.93,1.07C777.77,259.57,777.33,259.6,776.64,259.6z"/>
				</g>
				<g>
					<path class="st9" d="M779.86,302.93c-1.26,0-2.08-0.08-2.2-0.1c-0.55-0.06-0.94-0.55-0.89-1.1c0.06-0.55,0.54-0.95,1.1-0.89
						c0.1,0.01,9.67,0.97,15.56-4.33c3.1-2.78,4.67-6.84,4.67-12.06c0-0.55,0.45-1,1-1c0.55,0,1,0.45,1,1
						c0,5.82-1.8,10.38-5.34,13.56C789.97,302.31,783.28,302.93,779.86,302.93z"/>
				</g>
			</g>
			<g>
				<path class="st9" d="M880.49,330.77c-14.64-16.42-2.33-29.56-0.14-54.18c2.19-24.63-15.5-37.77-36.12-37.77
					c-19.03,0-38.31,13.14-36.12,37.77c2.19,24.63,14.5,37.77-0.14,54.18s-25.58,65.21,36.26,65.21
					C906.07,395.98,895.13,347.19,880.49,330.77z"/>
				<g>
					<path class="st13" d="M844.23,449.13c-0.55,0-1-0.45-1-1V282.52c0-0.55,0.45-1,1-1c0.55,0,1,0.45,1,1v165.61
						C845.23,448.69,844.78,449.13,844.23,449.13z"/>
				</g>
				<g>
					<path class="st13" d="M842.86,309.69c-3.11,0-10.5-0.49-15.16-4.83c-2.63-2.45-3.96-5.73-3.96-9.74c0-0.55,0.45-1,1-1
						c0.55,0,1,0.45,1,1c0,3.44,1.12,6.22,3.33,8.28c5.26,4.9,15,4.26,15.1,4.25c0.54-0.03,1.03,0.38,1.07,0.93
						c0.04,0.55-0.38,1.03-0.93,1.07C844.21,309.65,843.68,309.69,842.86,309.69z"/>
				</g>
				<g>
					<path class="st13" d="M846.75,362.01c-1.52,0-2.5-0.1-2.64-0.12c-0.55-0.06-0.94-0.55-0.89-1.1c0.06-0.55,0.56-0.95,1.1-0.89
						c0.12,0.01,11.76,1.18,18.95-5.27c3.79-3.4,5.71-8.36,5.71-14.72c0-0.55,0.45-1,1-1c0.55,0,1,0.45,1,1
						c0,6.97-2.15,12.42-6.38,16.22C858.87,361.27,850.86,362.01,846.75,362.01z"/>
				</g>
			</g>
			<g>
				<g>
					<polygon class="st12" points="404.5,259.7 402.5,259.7 402.5,235.9 426.3,235.9 426.3,237.9 404.5,237.9 					"/>
				</g>
				<g>
					<polygon class="st12" points="492.64,259.7 490.64,259.7 490.64,237.9 468.85,237.9 468.85,235.9 492.64,235.9 					"/>
				</g>
				<g>
					<polygon class="st12" points="426.3,306.35 402.5,306.35 402.5,282.56 404.5,282.56 404.5,304.35 426.3,304.35 					"/>
				</g>
				<g>
					<polygon class="st12" points="492.64,306.35 468.85,306.35 468.85,304.35 490.64,304.35 490.64,282.56 492.64,282.56 					"/>
				</g>
			</g>
			<g>
				<g>
					<polygon class="st12" points="567.56,325.98 565.56,325.98 565.56,294.12 597.42,294.12 597.42,296.12 567.56,296.12 					"/>
				</g>
				<g>
					<polygon class="st12" points="686.88,325.98 684.88,325.98 684.88,296.12 655.02,296.12 655.02,294.12 686.88,294.12 					"/>
				</g>
				<g>
					<polygon class="st12" points="597.42,384.47 565.56,384.47 565.56,352.61 567.56,352.61 567.56,382.47 597.42,382.47 					"/>
				</g>
				<g>
					<polygon class="st12" points="686.88,384.47 655.02,384.47 655.02,382.47 684.88,382.47 684.88,352.61 686.88,352.61 					"/>
				</g>
			</g>
		</g>
		<g>
			<polygon class="st11" points="895.87,498.45 398.67,498.45 348.88,562.59 945.66,562.59 			"/>
			<rect x="348.88" y="562.59" class="st14" width="596.79" height="13.82"/>
			<rect x="376.74" y="576.41" class="st4" width="541.07" height="135.55"/>
			<path class="st4" d="M845.75,383.57H665.82c-1.76,0-3.18,1.43-3.18,3.18v111.69h186.3V386.76
				C848.93,385,847.5,383.57,845.75,383.57z"/>
			
				<rect x="708.3" y="357.82" transform="matrix(-1.836970e-16 1 -1 -1.836970e-16 1196.7937 -314.7693)" class="st2" width="94.96" height="166.38"/>
			<path class="st5" d="M814.4,441.01c0,0-26.25,29.56-58.62,29.56c-32.38,0-58.62-29.56-58.62-29.56s26.25-29.56,58.62-29.56
				C788.16,411.45,814.4,441.01,814.4,441.01z"/>
			<circle class="st2" cx="755.78" cy="441.01" r="21.47"/>
			<polygon class="st4" points="451.52,509.36 443.51,509.36 419.86,552.84 427.87,552.84 			"/>
			<polygon class="st4" points="478.2,509.36 470.19,509.36 450.28,552.84 458.28,552.84 			"/>
			<polygon class="st4" points="507.16,509.36 499.15,509.36 480.48,552.84 488.49,552.84 			"/>
			<polygon class="st4" points="531.35,509.36 523.35,509.36 510.9,552.84 518.91,552.84 			"/>
			<path class="st12" d="M501.58,531.1h-14.95c-1.75,0-3.17-1.42-3.17-3.17l0,0c0-1.75,1.42-3.17,3.17-3.17h14.95
				c1.75,0,3.17,1.42,3.17,3.17l0,0C504.76,529.68,503.34,531.1,501.58,531.1z"/>
			<path class="st12" d="M526.72,540.64h-14.95c-1.75,0-3.17-1.42-3.17-3.17l0,0c0-1.75,1.42-3.17,3.17-3.17h14.95
				c1.75,0,3.17,1.42,3.17,3.17l0,0C529.89,539.22,528.47,540.64,526.72,540.64z"/>
			<path class="st2" d="M572.47,513.33c0,2.19-4.4,3.96-9.83,3.96s-9.83-1.77-9.83-3.96c0-2.19,4.4-3.96,9.83-3.96
				S572.47,511.14,572.47,513.33z"/>
			<path class="st2" d="M601.59,513.33c0,2.19-4.4,3.96-9.83,3.96c-5.43,0-9.83-1.77-9.83-3.96c0-2.19,4.4-3.96,9.83-3.96
				C597.19,509.36,601.59,511.14,601.59,513.33z"/>
			<path class="st2" d="M629.82,513.33c0,2.19-4.4,3.96-9.83,3.96s-9.83-1.77-9.83-3.96c0-2.19,4.4-3.96,9.83-3.96
				S629.82,511.14,629.82,513.33z"/>
			<ellipse class="st2" cx="556.56" cy="548.38" rx="9.83" ry="3.96"/>
			<ellipse class="st2" cx="585.67" cy="548.38" rx="9.83" ry="3.96"/>
			<ellipse class="st8" cx="613.9" cy="548.38" rx="9.83" ry="3.96"/>
			<ellipse class="st2" cx="559.27" cy="531.1" rx="9.83" ry="3.96"/>
			<ellipse class="st2" cx="588.38" cy="531.1" rx="9.83" ry="3.96"/>
			<ellipse class="st2" cx="616.62" cy="531.1" rx="9.83" ry="3.96"/>
			<path class="st14" d="M846.5,552.34H660.89c-2.99,0-5.25-2.7-4.74-5.64l5.79-33.12c0.4-2.3,2.4-3.98,4.74-3.98H846.5
				c2.66,0,4.81,2.15,4.81,4.81v33.12C851.32,550.18,849.16,552.34,846.5,552.34z"/>
			<g>
				<path class="st14" d="M770.88,695.74H558.92c-3.91,0-7.1-3.18-7.1-7.1v-69.91c0-3.91,3.18-7.1,7.1-7.1h211.96
					c3.91,0,7.1,3.18,7.1,7.1v69.91C777.97,692.55,774.79,695.74,770.88,695.74z M558.92,613.63c-2.81,0-5.1,2.29-5.1,5.1v69.91
					c0,2.81,2.29,5.1,5.1,5.1h211.96c2.81,0,5.1-2.29,5.1-5.1v-69.91c0-2.81-2.29-5.1-5.1-5.1H558.92z"/>
			</g>
			<rect x="549.44" y="626.47" class="st2" width="7.11" height="14.92"/>
			<rect x="549.44" y="667.97" class="st2" width="7.11" height="14.92"/>
			<path class="st2" d="M436.94,694.74h-37.61c-3.82,0-6.91-3.1-6.91-6.91v-20.33c0-3.82,3.1-6.91,6.91-6.91h37.61
				c3.82,0,6.91,3.1,6.91,6.91v20.33C443.86,691.64,440.76,694.74,436.94,694.74z"/>
			<rect x="402.4" y="672.7" class="st14" width="30.55" height="10.84"/>
			<rect x="486.65" y="612.63" class="st14" width="5.47" height="82.1"/>
			<rect x="472.73" y="629.45" class="st14" width="5.47" height="48.47"/>
			<rect x="513.77" y="629.45" class="st14" width="5.47" height="48.47"/>
			<rect x="501.69" y="612.63" class="st14" width="5.47" height="82.1"/>
			<g>
				<path class="st2" d="M374.53,731.05c-9.72,0-18.37-3.24-24.09-9.25c-5.84-6.13-7.8-14.07-8.43-19.65
					c-0.62-5.6,0.05-9.99,2.07-13.43c3.27-5.58,9.47-8.01,15.47-10.36l1.52-0.6c2.47-0.98,4.35-3.55,6.17-6.04
					c2.51-3.43,5.11-6.98,9.49-6.98v2c-3.37,0-5.56,2.99-7.88,6.16c-1.99,2.72-4.04,5.53-7.05,6.72l-1.53,0.6
					c-5.68,2.23-11.56,4.53-14.47,9.51c-1.79,3.06-2.38,7.05-1.81,12.2c0.59,5.28,2.43,12.77,7.89,18.5
					c6.89,7.24,18.43,10.17,30.88,7.84c11.68-2.18,22-8.39,28.33-17.04c6.83-9.33,8.79-21.84,5.01-31.86l1.87-0.71
					c4.08,10.8,2.06,23.73-5.27,33.75c-6.62,9.05-17.4,15.55-29.57,17.82C380.21,730.78,377.32,731.05,374.53,731.05z"/>
			</g>
			<rect x="427.71" y="521.52" class="st2" width="3.36" height="22.89"/>
			
				<ellipse transform="matrix(0.7071 -0.7071 0.7071 0.7071 -241.03 455.5701)" class="st8" cx="429.41" cy="518.73" rx="9.55" ry="9.55"/>
			<rect x="457" y="521.52" class="st2" width="3.36" height="22.89"/>
			
				<ellipse transform="matrix(0.2288 -0.9735 0.9735 0.2288 -151.2284 846.5714)" class="st8" cx="458.7" cy="518.73" rx="9.55" ry="9.55"/>
			<path class="st12" d="M780.13,436.71h-6.17c-0.47-1.98-1.24-3.83-2.28-5.51l4.36-4.36c0.23-0.23,0.23-0.59,0-0.82l-5.27-5.27
				c-0.22-0.23-0.59-0.23-0.81,0l-4.36,4.36c-1.68-1.04-3.53-1.81-5.51-2.28v-6.17c0-0.32-0.26-0.58-0.58-0.58h-7.45
				c-0.32,0-0.58,0.26-0.58,0.58v6.17c-1.98,0.47-3.83,1.24-5.51,2.28l-4.36-4.36c-0.23-0.23-0.59-0.23-0.82,0l-5.27,5.27
				c-0.23,0.23-0.23,0.59,0,0.82l4.36,4.36c-1.04,1.68-1.81,3.53-2.28,5.51h-6.17c-0.32,0-0.58,0.26-0.58,0.58v7.45
				c0,0.32,0.26,0.58,0.58,0.58h6.17c0.47,1.98,1.24,3.83,2.28,5.51l-4.36,4.36c-0.23,0.23-0.23,0.59,0,0.82l5.27,5.27
				c0.23,0.23,0.59,0.23,0.82,0l4.36-4.36c1.68,1.04,3.53,1.81,5.51,2.28v6.17c0,0.32,0.26,0.58,0.58,0.58h7.45
				c0.32,0,0.58-0.26,0.58-0.58v-6.17c1.98-0.47,3.83-1.24,5.51-2.28l4.36,4.36c0.22,0.23,0.59,0.23,0.81,0l5.27-5.27
				c0.23-0.23,0.23-0.59,0-0.82l-4.36-4.36c1.04-1.68,1.81-3.53,2.28-5.51h6.17c0.32,0,0.58-0.26,0.58-0.58v-7.45
				C780.7,436.97,780.44,436.71,780.13,436.71z M755.78,451.09c-5.56,0-10.07-4.51-10.07-10.07c0-5.56,4.51-10.07,10.07-10.07
				c5.56,0,10.07,4.51,10.07,10.07C765.86,446.58,761.35,451.09,755.78,451.09z"/>
			<circle class="st2" cx="755.78" cy="441.01" r="12.43"/>
			<circle class="st12" cx="755.78" cy="441.01" r="7.81"/>
			<circle class="st5" cx="759.68" cy="435.14" r="4.17"/>
			<polygon class="st4" points="635.94,473.08 649.33,460.63 662.63,460.63 662.63,498.45 635.94,498.45 			"/>
			<path class="st11" d="M649.85,476.82h12.78v-5.16h-12.78c-1.43,0-2.58,1.16-2.58,2.58l0,0
				C647.27,475.66,648.43,476.82,649.85,476.82z"/>
			<path class="st11" d="M649.85,488.25h12.78v-5.16h-12.78c-1.43,0-2.58,1.16-2.58,2.58l0,0
				C647.27,487.1,648.43,488.25,649.85,488.25z"/>
			<g>
				<rect x="661.63" y="465.04" class="st11" width="2" height="33.41"/>
			</g>
			<polygon class="st4" points="875.62,473.08 862.24,460.63 848.93,460.63 848.93,498.45 875.62,498.45 			"/>
			<path class="st11" d="M861.71,476.82h-12.78v-5.16h12.78c1.43,0,2.58,1.16,2.58,2.58l0,0
				C864.29,475.66,863.14,476.82,861.71,476.82z"/>
			<path class="st11" d="M861.71,488.25h-12.78v-5.16h12.78c1.43,0,2.58,1.16,2.58,2.58l0,0
				C864.29,487.1,863.14,488.25,861.71,488.25z"/>
			<g>
				<rect x="847.49" y="465.04" class="st11" width="2" height="33.41"/>
			</g>
		</g>
		<polygon class="st4" points="969.15,337.83 957.6,321.64 935.45,321.64 935.45,475.46 969.15,475.46 		"/>
		<circle class="st15" cx="952.3" cy="344.53" r="10.74"/>
		<path class="st12" d="M962.94,341.88l-19.19,9.53c-1.16,0.58-2.58,0.1-3.16-1.06l0,0c-0.58-1.16-0.1-2.58,1.06-3.16l19.19-9.53
			c1.16-0.58,2.58-0.1,3.16,1.06l0,0C964.58,339.89,964.11,341.3,962.94,341.88z"/>
		
			<ellipse transform="matrix(0.7071 -0.7071 0.7071 0.7071 10.7372 784.4626)" class="st15" cx="952.3" cy="379.27" rx="10.74" ry="10.74"/>
		<path class="st12" d="M959.93,387.15l-17.86-11.84c-1.08-0.72-1.38-2.18-0.66-3.26l0,0c0.72-1.08,2.18-1.38,3.26-0.66l17.86,11.84
			c1.08,0.72,1.38,2.18,0.66,3.26l0,0C962.47,387.57,961.01,387.87,959.93,387.15z"/>
		<rect x="941.56" y="404.73" class="st15" width="21.48" height="3.3"/>
		<rect x="941.56" y="412.03" class="st15" width="21.48" height="3.3"/>
		<rect x="941.56" y="419.32" class="st15" width="21.48" height="3.3"/>
		<g>
			<path class="st2" d="M981.71,695.74h-63.9v-2h63.9c3.57,0,6.47-2.9,6.47-6.47V460.8c0-3.57-2.9-6.47-6.47-6.47h-12.56v-2h12.56
				c4.67,0,8.47,3.8,8.47,8.47v226.47C990.18,691.94,986.38,695.74,981.71,695.74z"/>
		</g>
		<g>
			<path class="st16" d="M759.26,718.34c0,0,2.27,13.47,0,15.36c-2.27,1.89-21.38,3.78-31.24,3.99c-9.87,0.21-30.86,2.31-34.01,0
				c-3.15-2.31-0.63-8.4,12.18-10.08c12.81-1.68,31.42-15.65,31.42-15.65L759.26,718.34z"/>
			<path class="st10" d="M762.27,612.63l-26.66,98.2c0,0,12.13,7.51,23.65,7.51c0,0,30.24-47.59,33.41-52.86
				S762.27,612.63,762.27,612.63z"/>
			<path class="st10" d="M879.67,417.07c-3.91-1.09-7.44-2.66-9.54-4.93c-6.99-7.58-0.77-12.09,3.78-9.66
				c2.84,1.51,5.48,0.95,5.48,0.95s-6.99-4.73-4.91-9.45c2.08-4.73,9.83,4.35,19.85,6.62s28.54-1.89,28.54,13.8
				c0,0,5.67-2.46,6.99,6.05c1.32,8.51-7.37,13.8-7.37,19.47c0,5.67-6.96,16.22-13.31,12.74L879.67,417.07z"/>
			<path class="st17" d="M881.09,412.49c0,0-2.46,6.8-2.46,11.53c0,0-9.07,13.04-10.96,14.74c-1.89,1.7,6.43,3.78,8.13,3.78
				c0,0-0.76,13.04,2.27,14.93c3.02,1.89,20.41,0,24.76-8.32c4.35-8.32,6.62-23.14,4.91-31.13
				C906.04,410.04,881.09,412.49,881.09,412.49z"/>
			<path class="st17" d="M901.32,441.98c0,0,2.84,4.54,8.88,3.78c6.05-0.76,8.32-10.4,5.86-13.42c-2.46-3.02-11.34-0.95-11.34-0.95
				L901.32,441.98z"/>
			<polygon class="st17" points="889.41,454.46 887.85,471.66 908.31,464.47 910.01,441.22 			"/>
			<path class="st10" d="M912.85,422.7c0,0-6.17,15.35-9.45,15.57c-3.28,0.23-3.4-18.79-3.4-18.79s-11.17,0.11-20.29-2.41l-2.4-6.67
				l7.75-1.7l26.27,3.42L912.85,422.7z"/>
			<path class="st1" d="M882.92,467.83c0,0,10.2-3.99,29.92-9.67l2.05,9.67c0,0,10.2,15.02,8.96,41.04
				c-1.24,26.01-9.03,56.98-11.02,60.39c-1.99,3.41-51.54,10.53-61.76,0c-10.22-10.53,15.18-54.51,17.65-68.44
				c2.48-13.94,8.57-20.44,8.57-20.44L882.92,467.83z"/>
			<path class="st1" d="M893.98,481.74c13.09,1.39,21.65,13.73,20.92,22.78c-0.73,9.05-11.15,37.56-55.57,39.75
				c-44.42,2.19-59.22-22.21-59.22-22.21s-2.19-11.24,11.52-12.89c0,0,12.34,7.45,26.87,7.29c14.53-0.16,27.97-6.47,36.19-16.61
				C882.91,489.71,887.12,481.01,893.98,481.74z"/>
			<g>
				<path class="st18" d="M838.5,517.47c-0.55,0-0.99-0.44-1-0.99c-0.01-0.55,0.44-1,0.99-1.01c14.06-0.16,27.31-6.23,35.42-16.24
					c1.91-2.35,3.63-4.68,5.16-6.73l1.06-1.42c0.33-0.44,0.96-0.53,1.4-0.2c0.44,0.33,0.53,0.96,0.2,1.4l-1.05,1.42
					c-1.54,2.07-3.28,4.41-5.21,6.8c-8.49,10.47-22.3,16.82-36.96,16.98C838.51,517.47,838.5,517.47,838.5,517.47z"/>
			</g>
			<g>
				<path class="st18" d="M853.84,545.41c-40.25,0-54.44-22.59-54.58-22.83c-0.29-0.47-0.14-1.09,0.34-1.37
					c0.47-0.29,1.09-0.14,1.37,0.33c0.15,0.24,15.12,23.87,58.32,21.73c42.4-2.09,53.8-28.74,54.62-38.84
					c0.04-0.55,0.52-0.95,1.08-0.92c0.55,0.04,0.96,0.53,0.92,1.08c-0.86,10.58-12.68,38.51-56.51,40.67
					C857.49,545.37,855.64,545.41,853.84,545.41z"/>
			</g>
			<path class="st17" d="M809.96,509.45c0,0-7.27-8.52-11.59-10.28c-4.31-1.77-8.43-0.2-13.34,3.92c-4.9,4.12-10.98,9.71-9.41,13.38
				c1.57,3.68,2.75,9.56,6.08,9.56c3.33,0,8.63-4.51,8.63-4.51s5.05,6.38,9.78,0.54C804.85,516.23,809.96,509.45,809.96,509.45z"/>
			<g class="st19">
				<path class="st0" d="M789.47,522.02c-1.83-3.17-3.12-5.66-3.85-7.11c-1.99,2.09-4.21,2.53-4.32,2.55l-0.37-1.97
					c0.1-0.02,2.38-0.5,4.07-2.99l0.99-1.47l0.75,1.6c0.02,0.03,1.59,3.39,4.47,8.39L789.47,522.02z"/>
			</g>
			<g>
				<path class="st10" d="M879.23,450.27c-1.98,0-3.52-0.29-3.64-0.32c-0.54-0.11-0.89-0.63-0.79-1.17c0.11-0.54,0.63-0.9,1.17-0.79
					c0.05,0.01,5.02,0.95,8.19-0.69c0.49-0.25,1.09-0.06,1.35,0.43c0.25,0.49,0.06,1.09-0.43,1.35
					C883.27,450.02,881.06,450.27,879.23,450.27z"/>
			</g>
			<g>
				<path class="st10" d="M883.45,435.2c-0.48,0-0.91-0.35-0.99-0.84c-0.54-3.38-0.02-6.95,0-7.1c0.08-0.55,0.58-0.93,1.13-0.84
					c0.55,0.08,0.92,0.59,0.84,1.14c0,0.03-0.49,3.42,0,6.49c0.09,0.55-0.28,1.06-0.83,1.14C883.56,435.2,883.5,435.2,883.45,435.2z
					"/>
			</g>
			<path class="st16" d="M803.93,715.04c0,0,4.49,17.19,3.02,20.76c-1.47,3.57-15.95,5.46-26.03,4.2
				c-10.08-1.26-34.01,4.77-38.21,0.39c-4.2-4.38,1.26-8.16,7.77-9.84c6.51-1.68,19.78-4.13,26.79-10.14L803.93,715.04z"/>
			<path class="st10" d="M851.08,569.26l-4.03,9.91c0,0-74.82,4.78-87.23,16.82c-12.41,12.04,17.11,103.63,17.45,107.99
				c0.34,4.36-4.03,7.05-2.01,10.74c2.01,3.69,2.01,5.7,2.01,5.7s17.09,2.35,26.66-5.37c0,0,3.87-20.13,3.87-45.63
				c0-25.5,1.68-34.22,1.68-34.22s57.37,4.7,75.49-0.67c18.12-5.37,30.95-38.95,24.2-63.59L851.08,569.26z"/>
			<path class="st12" d="M939.43,498.45c-18.65,1.88-33.09,55.51-38.11,81.15c-5.02,25.65-12.73,48.96-43.85,44.3
				c-31.12-4.66-49.19-11.07-51.52,6.41c-2.33,17.49,11.07,21.57,46.63,21.57c35.56,0,58.97-2.13,64.46-39.25
				c5.49-37.11,17.73-87.9,28.22-100.39C955.75,499.75,939.43,498.45,939.43,498.45z"/>
			<path class="st2" d="M864.4,642.99L864.4,642.99c-3.04,0-5.51-2.47-5.51-5.51v-50.43h11.02v50.43
				C869.91,640.53,867.45,642.99,864.4,642.99z"/>
			<path class="st2" d="M881.32,590.12h-73.75c-3.79,0-6.86-3.07-6.86-6.86v0c0-3.79,3.07-6.86,6.86-6.86h73.75
				c3.79,0,6.86,3.07,6.86,6.86v0C888.18,587.05,885.11,590.12,881.32,590.12z"/>
			<g>
				<path class="st18" d="M859.78,539.92c-0.43,0-0.84-0.18-1.13-0.51c-5.02-5.59-9.28-11.83-12.66-18.54
					c-3.54,2.67-5.84,6.93-6.08,11.4c-0.03,0.55-0.5,0.98-1.05,0.95c-0.55-0.03-0.98-0.5-0.95-1.05c0.27-5.05,2.88-9.88,6.98-12.91
					c0.45-0.33,1.02-0.45,1.57-0.32c0.57,0.13,1.04,0.51,1.31,1.04c3.12,6.2,7.01,11.98,11.57,17.21
					c0.24-9.97,1.95-19.81,5.09-29.27c0.17-0.52,0.74-0.8,1.26-0.63c0.52,0.17,0.81,0.74,0.63,1.26c-3.21,9.64-4.9,19.69-5.01,29.86
					c-0.01,0.64-0.4,1.2-1,1.42C860.14,539.89,859.96,539.92,859.78,539.92z M859.32,538.38
					C859.32,538.38,859.32,538.38,859.32,538.38C859.32,538.38,859.32,538.38,859.32,538.38z"/>
			</g>
			<rect x="862.74" y="651.78" class="st2" width="14.49" height="68.97"/>
			<path class="st2" d="M909.47,738.77c1.73,0,2.84-1.87,1.98-3.38c-6.87-11.95-23.13-20.35-42.11-20.35
				c-18.98,0-35.25,8.4-42.11,20.35c-0.86,1.5,0.25,3.38,1.98,3.38H909.47z"/>
			<g>
				<path class="st20" d="M777.98,716.12c-0.53,0-0.97-0.41-1-0.94c-0.03-0.55,0.39-1.02,0.94-1.05c7.7-0.43,15.31-4.05,20.58-9.73
					c-5.86,0.43-11.79,0.53-17.65,0.29c-0.62-0.02-1.16-0.41-1.39-0.99c-0.23-0.58-0.09-1.24,0.35-1.68
					c9.96-10.06,18.76-22.38,26.16-36.62c0.25-0.49,0.86-0.68,1.35-0.43c0.49,0.25,0.68,0.86,0.43,1.35
					c-7.32,14.09-16.01,26.33-25.82,36.4c5.82,0.2,11.71,0.06,17.51-0.41c0.62-0.05,1.23,0.28,1.52,0.85
					c0.29,0.56,0.21,1.23-0.2,1.71c-5.63,6.56-14.12,10.77-22.72,11.25C778.01,716.12,778,716.12,777.98,716.12z"/>
			</g>
			<g>
				<path class="st20" d="M775.25,715.71c-0.35,0-0.7-0.19-0.88-0.52c-1.36-2.5-0.31-4.67,0.62-6.59c0.72-1.48,1.4-2.88,1.27-4.55
					c-0.06-0.74-1.3-5.17-2.88-10.79c-12.22-43.44-23.48-89.06-14.26-98c0.4-0.38,1.03-0.38,1.41,0.02c0.38,0.4,0.38,1.03-0.02,1.41
					c-9.6,9.31,8.12,72.31,14.79,96.02c2,7.1,2.88,10.27,2.95,11.17c0.17,2.21-0.7,4-1.47,5.58c-0.98,2.02-1.5,3.23-0.67,4.75
					c0.26,0.48,0.09,1.09-0.4,1.36C775.58,715.67,775.42,715.71,775.25,715.71z"/>
			</g>
			<g>
				<path class="st18" d="M890.6,484.09c-0.21,0-0.41-0.06-0.58-0.18c-0.26-0.19-0.42-0.49-0.42-0.82c0-2.73-2.66-7.83-4.3-10.61
					l-7.23,8.54c-0.36,0.42-0.99,0.47-1.41,0.12c-0.42-0.36-0.47-0.99-0.12-1.41l8.12-9.6c0.21-0.24,0.51-0.37,0.83-0.35
					c0.32,0.02,0.61,0.19,0.78,0.46c0.2,0.31,4.37,6.93,5.18,11.46c3.73-1.47,15.36-6.48,22.7-14.54c0.37-0.41,1-0.44,1.41-0.07
					c0.41,0.37,0.44,1,0.07,1.41c-9.14,10.04-24.08,15.32-24.71,15.54C890.82,484.07,890.71,484.09,890.6,484.09z"/>
			</g>
		</g>
		<g>
			<path class="st2" d="M285.17,719.54c0,0-4.01,12.32-2.99,17.95c1.02,5.63,30.98,4.1,41.47,4.61c10.5,0.51,15.36-1.28,14.34-4.1
				c-1.02-2.82-13.06-3.27-18.94-7.14c-5.89-3.87-13.57-11.32-13.57-11.32H285.17z"/>
			<path class="st2" d="M178.9,714.2c0,0-6.69,11.09-6.97,16.81c-0.28,5.72,29.25,10.99,39.36,13.86
				c10.11,2.87,15.25,2.23,14.89-0.75c-0.36-2.97-11.98-6.14-16.84-11.24c-4.86-5.1-10.66-14.1-10.66-14.1L178.9,714.2z"/>
			<path class="st10" d="M308.4,594.49c0,0,11.8,29.36,7.11,73.17c-4.69,43.81-7.11,51.87-7.11,51.87s-6.83,7.36-23.23,0
				c0,0,3.43-53.27,0-69.75c-3.43-16.47-27.31-71.04-27.31-71.04s-9.04,59.14-20.79,79.32c-11.75,20.18-37.56,60.88-37.56,60.88
				s-10.51,4.56-21.2-3.99c0,0,22.96-50.44,26.82-76.15c3.86-25.7,5.65-74.17,5.65-74.17l43.92-37.27h21.21L308.4,594.49z"/>
			<path class="st17" d="M291.29,356.71c0,0,1.8,4.95,0,13.21c0,0,2.4,9.46,4.65,12.31c2.25,2.85-4.05,2.55-5.4,2.55
				c0,0-2.85,10.66-5.25,11.56c-2.4,0.9-12.76-4.95-12.76-4.95l3.31-24.94L291.29,356.71z"/>
			<path class="st17" d="M280.27,389.41c0,0-4.94,11.11-4.69,16.55l-7.9-5.68l3.7-13.34L280.27,389.41z"/>
			<path class="st21" d="M271.4,400.86c0,0,27.98,7.65,38.74,23.67c10.76,16.02,13.39,32.28,24.87,33.48
				c11.48,1.2,24.87-10.12,24.87-10.12s11.24,4.38,13.15,15.15c0,0-15.54,24.87-39.7,24.39c-24.15-0.48-46.87-16.5-46.87-16.5
				L271.4,400.86z"/>
			<path class="st17" d="M359.88,447.88c0,0,1.17-8.02,3.45-15.27c2.28-7.25,4.14-18.24,7.87-17.82c3.73,0.41,0.41,11.81,0,15.75
				c0,0,14.71,4.97,13.26,10.98c-1.45,6.01-9.12,16.16-14.3,18.44L359.88,447.88z"/>
			<path class="st21" d="M294.52,427.76c2.28,9.14-0.61,68.29,8.53,88.01c9.14,19.72,27.41,78.58,25.01,84.5
				c-2.4,5.92-28.16,25.08-62.52,15.54c-8.66-2.4-13.95-30.3-13.95-30.3s-6.25,27.28-11.76,29.42c-5.51,2.14-38.24-6.12-42.22-11.32
				s-6.12-33.96,0-52.01c6.12-18.05,25.7-76.81,26-91.63c0.31-14.83,4.59-45.19,4.59-45.19l44.31-11.02L294.52,427.76z"/>
			<path class="st21" d="M217.2,430.76c0,0-14.03,33.04-13.44,45.28c0.59,12.24,13.44,24.17,13.44,24.17l13.77-61.49L217.2,430.76z"
				/>
			<g>
				<path class="st0" d="M336.77,459.1c-0.62,0-1.24-0.03-1.85-0.09c-8.18-0.85-12.05-8.6-16.94-18.41
					c-2.38-4.77-5.08-10.19-8.65-15.5c-10.43-15.53-37.9-23.19-38.17-23.27c-0.53-0.15-0.85-0.7-0.7-1.23
					c0.14-0.53,0.69-0.85,1.23-0.7c0.07,0.02,7.17,1.98,15.5,5.89c11.23,5.27,19.25,11.4,23.81,18.19
					c3.64,5.42,6.37,10.9,8.78,15.72c4.8,9.62,8.27,16.58,15.36,17.32c10.92,1.13,23.99-9.78,24.12-9.89
					c0.42-0.36,1.05-0.3,1.41,0.12c0.36,0.42,0.3,1.05-0.12,1.41C360,449.1,348.03,459.1,336.77,459.1z"/>
			</g>
			<path class="st10" d="M289.41,345.95c9.33,6.31,4.45,21.49-3.21,27.91c-7.66,6.42-13.83,16.3-12.22,24.2
				c1.61,7.9-0.37,20.99-10.99,21.49c-10.62,0.49-16.3,9.88-16.3,16.05s-6.91,16.3-25.68,10.62c-18.77-5.68-24.7-13.34-23.71-20.25
				c0.99-6.92,7.66-6.42,12.6-12.1c4.94-5.68-2.22-9.63,6.42-18.52c8.64-8.89,21.73-8.64,22.23-15.56
				c0.49-6.92-2.96-27.17,9.38-37.29C260.27,332.36,272.62,334.59,289.41,345.95z"/>
			<g>
				<path class="st22" d="M296.64,477.92c-0.14,0-0.29-0.03-0.43-0.1c-0.53-0.25-13.1-6.34-21.16-19.3
					c-0.29-0.47-0.15-1.09,0.32-1.38c0.47-0.29,1.08-0.15,1.38,0.32c7.75,12.47,20.19,18.49,20.32,18.55
					c0.5,0.24,0.71,0.83,0.47,1.33C297.38,477.71,297.02,477.92,296.64,477.92z"/>
			</g>
			<g>
				<path class="st22" d="M215.27,497.29c-0.09,0-0.19-0.01-0.28-0.04c-0.53-0.16-0.83-0.71-0.68-1.24
					c5.41-18.49,8.2-30.63,8.32-36.07c0.01-0.55,0.48-0.98,1.02-0.98c0.55,0.01,0.99,0.47,0.98,1.02
					c-0.12,5.62-2.94,17.93-8.4,36.59C216.1,497.01,215.7,497.29,215.27,497.29z"/>
			</g>
			<g>
				<path class="st23" d="M215.71,443.17c-0.49,0-0.92-0.36-0.99-0.86c-0.08-0.55,0.3-1.05,0.85-1.13
					c8.8-1.27,16.54-8.17,18.82-16.77c0.38-1.45,0.66-3.03,0.93-4.56c0.79-4.53,1.61-9.21,5.31-12.11c2.28-1.79,5.07-2.38,7.78-2.94
					c1.99-0.42,3.86-0.81,5.54-1.64c3.48-1.72,6.17-5.59,7.21-10.35c0.96-4.43,0.56-9.09,0.17-13.59c-0.05-0.55,0.36-1.03,0.91-1.08
					c0.55-0.06,1.03,0.36,1.08,0.91c0.4,4.65,0.81,9.46-0.21,14.18c-1.18,5.43-4.19,9.7-8.27,11.72c-1.91,0.94-4,1.38-6.02,1.81
					c-2.59,0.54-5.04,1.06-6.95,2.56c-3.09,2.43-3.81,6.54-4.57,10.89c-0.27,1.57-0.56,3.2-0.97,4.73
					c-2.48,9.35-10.89,16.85-20.47,18.24C215.81,443.17,215.76,443.17,215.71,443.17z"/>
			</g>
			<g>
				<path class="st23" d="M201.57,436.23c-0.49,0-0.92-0.36-0.99-0.86c-0.08-0.55,0.3-1.05,0.85-1.13
					c8.8-1.27,16.54-8.17,18.82-16.77c0.38-1.45,0.66-3.03,0.93-4.56c0.79-4.53,1.61-9.21,5.31-12.11c2.28-1.79,5.07-2.38,7.78-2.94
					c1.99-0.42,3.86-0.81,5.54-1.64c1.97-0.97,3.7-2.63,5.02-4.78c0.29-0.47,0.9-0.62,1.37-0.33c0.47,0.29,0.62,0.9,0.33,1.37
					c-1.51,2.48-3.53,4.39-5.83,5.53c-1.91,0.94-4,1.38-6.02,1.81c-2.59,0.54-5.04,1.06-6.95,2.56c-3.09,2.43-3.81,6.54-4.57,10.89
					c-0.27,1.57-0.56,3.2-0.97,4.73c-2.48,9.35-10.9,16.85-20.47,18.24C201.66,436.23,201.62,436.23,201.57,436.23z"/>
			</g>
			<g>
				<path class="st10" d="M288,375.79c-0.04,0-0.07,0-0.11-0.01c-0.55-0.06-0.95-0.55-0.89-1.1l0.69-6.5
					c0.06-0.55,0.55-0.94,1.1-0.89c0.55,0.06,0.95,0.55,0.89,1.1l-0.69,6.5C288.94,375.41,288.5,375.79,288,375.79z"/>
			</g>
			<g>
				<path class="st10" d="M289.16,390.23c-0.06,0-0.12-0.01-0.18-0.02c-0.13-0.02-3.15-0.6-5.2-2.55c-0.4-0.38-0.41-1.01-0.03-1.41
					c0.38-0.4,1.01-0.41,1.41-0.03c1.62,1.55,4.15,2.02,4.18,2.03c0.54,0.1,0.9,0.62,0.8,1.16
					C290.06,389.89,289.64,390.23,289.16,390.23z"/>
			</g>
		</g>
		<g>
			<path class="st9" d="M638.56,689.78c-2.5-5.49-4.31-11.46-3.93-17.48c0.37-6.02,3.19-12.11,8.29-15.34
				c5-3.16,11.48-3.27,16.45-6.47c2.88-1.84,5.07-4.61,7.94-6.46c2.87-1.85,7.02-2.54,9.49-0.18c2.59,2.48,1.82,6.99-0.43,9.78
				c-2.25,2.8-5.55,4.49-8.38,6.7c-8.18,6.4-12.15,17.73-9.74,27.84L638.56,689.78z"/>
			<g>
				<path class="st13" d="M646.54,687.12c-0.37,0-0.73-0.21-0.9-0.57c-2.6-5.4-2.23-12.3,0.96-17.6c3.21-5.34,8.68-8.72,13.5-11.7
					c0.47-0.29,1.09-0.15,1.38,0.33c0.29,0.47,0.14,1.09-0.33,1.38c-4.63,2.86-9.88,6.11-12.84,11.03
					c-2.85,4.73-3.19,10.89-0.87,15.7c0.24,0.5,0.03,1.1-0.47,1.33C646.83,687.09,646.68,687.12,646.54,687.12z"/>
			</g>
			<path class="st9" d="M618.7,689.17c-8.86-5.57-13.41-17.2-10.67-27.29c1.54-5.69,5.15-11.1,4.39-16.94
				c-0.4-3.11-2.02-5.91-2.99-8.9s-1.15-6.6,0.96-8.92c2.12-2.33,5.94-2.45,8.73-0.98c2.79,1.47,4.7,4.19,6.16,6.98
				c3.79,7.24,5.19,15.71,3.94,23.79c-0.81,5.25-2.71,10.42-2.26,15.71c0.45,5.33,3.24,10.15,5.96,14.76L618.7,689.17z"/>
			<g>
				<path class="st13" d="M622.58,686.93c-0.21,0-0.43-0.07-0.61-0.21c-6.27-4.87-8.92-13.84-6.32-21.34
					c0.5-1.43,1.16-2.78,1.8-4.09c0.63-1.29,1.23-2.52,1.69-3.81c0.49-1.38,1.43-4.87-0.33-7.4c-0.31-0.45-0.2-1.08,0.25-1.39
					c0.45-0.32,1.08-0.2,1.39,0.25c1.6,2.31,1.81,5.67,0.57,9.21c-0.49,1.4-1.15,2.74-1.78,4.03c-0.64,1.31-1.25,2.56-1.71,3.87
					c-2.33,6.71,0.05,14.75,5.65,19.1c0.44,0.34,0.52,0.97,0.18,1.4C623.17,686.79,622.88,686.93,622.58,686.93z"/>
			</g>
			<path class="st13" d="M620.14,684.02c-3.68-1.52-4.98-6.38-3.83-10.2c1.15-3.81,4.07-6.79,6.92-9.58
				c2.85-2.79,5.82-5.69,7.12-9.45c2.53-7.31-1.94-15.56,0.18-23.01c1.94-6.83,8.81-10.96,15.41-13.55c2.69-1.06,5.51-1.98,8.4-1.89
				c2.89,0.09,5.89,1.39,7.33,3.89c2.31,3.98-0.07,9.05-2.99,12.6c-2.93,3.55-6.61,6.97-7.23,11.53c-0.55,4.04,1.48,7.93,2.5,11.88
				c1.65,6.38,0.58,13.4-2.88,19.01c-2.22,3.6-5.33,6.56-8.02,9.83c-2.69,3.27-5.03,7.09-5.26,11.32L620.14,684.02z"/>
			<g>
				<path class="st9" d="M631.57,687.09c-0.36,0-0.7-0.19-0.88-0.53c-2.28-4.28-1.98-10.01,0.87-16.56
					c0.62-1.43,1.32-2.85,1.99-4.22c1.74-3.55,3.38-6.89,3.98-10.58c0.37-2.26,0.33-4.53,0.28-6.93c-0.03-1.38-0.05-2.81,0.01-4.22
					c0.21-4.93,1.61-8.63,4.17-10.99c0.4-0.37,1.04-0.35,1.41,0.06c0.37,0.41,0.35,1.04-0.06,1.41c-2.16,1.99-3.34,5.22-3.53,9.61
					c-0.06,1.35-0.03,2.75-0.01,4.1c0.04,2.39,0.09,4.85-0.31,7.29c-0.65,3.98-2.44,7.62-4.16,11.14c-0.66,1.35-1.35,2.75-1.96,4.14
					c-1.81,4.16-3.45,10.11-0.94,14.82c0.26,0.49,0.07,1.09-0.41,1.35C631.88,687.06,631.72,687.09,631.57,687.09z"/>
			</g>
			<polygon class="st2" points="662.44,683.48 606.33,683.48 612.87,739.58 653.29,739.58 			"/>
		</g>
		<g>
			<path class="st9" d="M1115.48,606.3c-12.81-14.37-2.04-25.87-0.12-47.43c1.92-21.56-13.56-33.05-31.62-33.05
				c-16.65,0-33.53,11.5-31.62,33.05c1.92,21.56,12.69,33.05-0.12,47.43c-12.81,14.37-22.39,57.08,31.74,57.08
				C1137.87,663.38,1128.29,620.67,1115.48,606.3z"/>
			<g>
				<path class="st13" d="M1083.74,710.02c-0.55,0-1-0.45-1-1V564.07c0-0.55,0.45-1,1-1s1,0.45,1,1v144.95
					C1084.74,709.58,1084.29,710.02,1083.74,710.02z"/>
			</g>
			<g>
				<path class="st13" d="M1082.55,587.97c-2.74,0-9.25-0.43-13.36-4.26c-2.33-2.17-3.51-5.07-3.51-8.62c0-0.55,0.45-1,1-1
					s1,0.45,1,1c0,2.97,0.96,5.38,2.87,7.15c4.55,4.24,13.04,3.7,13.12,3.69c0.55-0.04,1.03,0.38,1.07,0.93
					c0.04,0.55-0.38,1.03-0.93,1.07C1083.73,587.94,1083.27,587.97,1082.55,587.97z"/>
			</g>
			<g>
				<path class="st13" d="M1085.95,633.76c-1.33,0-2.19-0.09-2.32-0.1c-0.55-0.06-0.94-0.55-0.89-1.1c0.06-0.55,0.54-0.95,1.1-0.89
					c0.1,0.01,10.24,1.02,16.49-4.59c3.29-2.95,4.95-7.26,4.95-12.79c0-0.55,0.45-1,1-1s1,0.45,1,1c0,6.13-1.89,10.94-5.62,14.29
					C1096.61,633.12,1089.56,633.76,1085.95,633.76z"/>
			</g>
		</g>
		<g>
			<path class="st24" d="M340.46,318.74H195.79c-4.95,0-8.96-4.01-8.96-8.96v-78.26c0-4.95,4.01-8.96,8.96-8.96h144.67
				c4.95,0,8.96,4.01,8.96,8.96v78.26C349.42,314.73,345.41,318.74,340.46,318.74z"/>
			<g>
				<path class="st0" d="M340.46,319.74H195.79c-5.49,0-9.96-4.47-9.96-9.96v-63.51c0-0.55,0.45-1,1-1c0.55,0,1,0.45,1,1v63.51
					c0,4.39,3.57,7.96,7.96,7.96h144.67c0.55,0,1,0.45,1,1C341.46,319.29,341.01,319.74,340.46,319.74z"/>
			</g>
			<path class="st12" d="M340.46,222.56H195.79c-4.95,0-8.96,4.01-8.96,8.96v8.42h162.59v-8.42
				C349.42,226.58,345.41,222.56,340.46,222.56z"/>
			<circle class="st2" cx="198.35" cy="231.25" r="2.95"/>
			<path class="st25" d="M201.04,254.38c0,1.48-1.2,2.69-2.69,2.69c-1.48,0-2.69-1.2-2.69-2.69c0-1.48,1.2-2.69,2.69-2.69
				C199.84,251.69,201.04,252.89,201.04,254.38z"/>
			<circle class="st24" cx="211.9" cy="231.25" r="2.95"/>
			<circle class="st26" cx="225.45" cy="231.25" r="2.95"/>
			<g>
				<path class="st25" d="M241.24,257.07h-28.26c-1.48,0-2.69-1.2-2.69-2.69c0-1.48,1.2-2.69,2.69-2.69h28.26
					c1.48,0,2.69,1.2,2.69,2.69C243.93,255.86,242.73,257.07,241.24,257.07z"/>
			</g>
			<g>
				<path class="st25" d="M283.36,257.07H255.1c-1.49,0-2.69-1.2-2.69-2.69c0-1.48,1.2-2.69,2.69-2.69h28.26
					c1.49,0,2.69,1.2,2.69,2.69C286.04,255.86,284.84,257.07,283.36,257.07z"/>
			</g>
			<path class="st25" d="M201.04,268.72c0,1.48-1.2,2.69-2.69,2.69c-1.48,0-2.69-1.2-2.69-2.69c0-1.48,1.2-2.69,2.69-2.69
				C199.84,266.03,201.04,267.23,201.04,268.72z"/>
			<g>
				<path class="st25" d="M228.7,271.4h-15.71c-1.48,0-2.69-1.2-2.69-2.69c0-1.48,1.2-2.69,2.69-2.69h15.71
					c1.48,0,2.69,1.2,2.69,2.69C231.38,270.2,230.18,271.4,228.7,271.4z"/>
			</g>
			<g>
				<path class="st25" d="M319.2,271.4h-76.64c-1.49,0-2.69-1.2-2.69-2.69c0-1.48,1.2-2.69,2.69-2.69h76.64
					c1.48,0,2.69,1.2,2.69,2.69C321.89,270.2,320.68,271.4,319.2,271.4z"/>
			</g>
			<path class="st25" d="M201.04,283.95c0,1.48-1.2,2.69-2.69,2.69c-1.48,0-2.69-1.2-2.69-2.69s1.2-2.69,2.69-2.69
				C199.84,281.26,201.04,282.46,201.04,283.95z"/>
			<g>
				<path class="st25" d="M254.84,286.64h-41.85c-1.48,0-2.69-1.2-2.69-2.69c0-1.48,1.2-2.69,2.69-2.69h41.85
					c1.49,0,2.69,1.2,2.69,2.69C257.53,285.43,256.33,286.64,254.84,286.64z"/>
			</g>
		</g>
	</g>
</g>
</svg>
